<?xml version="1.0" standalone="no"?>
<!DOCTYPE svg PUBLIC "-//W3C//DTD SVG 20010904//EN"
 "http://www.w3.org/TR/2001/REC-SVG-20010904/DTD/svg10.dtd">
<svg version="1.0" xmlns="http://www.w3.org/2000/svg"
 width="700.000000pt" height="700.000000pt" viewBox="0 0 700.000000 700.000000"
 preserveAspectRatio="xMidYMid meet">
<metadata>
Created by potrace 1.11, written by Peter Selinger 2001-2013
</metadata>
<g transform="translate(0.000000,700.000000) scale(0.100000,-0.100000)"
fill="#000000" stroke="none">
<path d="M162 6781 c-102 -32 -157 -107 -157 -211 1 -53 6 -75 28 -112 15 -26
39 -55 55 -66 24 -18 309 -134 632 -259 63 -24 126 -49 140 -54 14 -6 68 -28
120 -48 l95 -36 22 -125 c12 -69 34 -186 48 -260 13 -74 27 -148 30 -165 2
-16 9 -55 15 -85 7 -30 14 -68 16 -85 3 -16 16 -86 29 -155 13 -69 27 -141 30
-160 3 -19 22 -120 41 -225 37 -201 48 -263 63 -347 5 -29 34 -188 65 -353 30
-165 58 -316 61 -335 3 -19 8 -42 10 -50 2 -8 6 -32 10 -54 3 -21 7 -41 9 -45
2 -3 7 -28 10 -56 4 -27 13 -81 21 -120 8 -38 21 -108 29 -155 8 -47 18 -98
21 -115 3 -16 23 -127 45 -245 22 -118 42 -228 45 -245 3 -16 10 -52 15 -80
25 -138 34 -162 84 -207 45 -42 89 -58 173 -62 41 -2 76 -6 79 -9 3 -2 -4 -29
-15 -58 -258 -711 -249 -680 -212 -764 13 -28 34 -53 62 -72 39 -26 51 -28
156 -31 62 -2 113 -6 113 -8 0 -2 -16 -25 -36 -50 -155 -205 -171 -505 -37
-734 51 -86 152 -187 238 -238 115 -68 212 -93 350 -93 256 1 485 148 603 386
38 77 55 157 58 265 5 169 -39 307 -138 433 l-30 37 731 0 c402 0 731 -2 731
-5 0 -3 -16 -26 -37 -52 -46 -61 -89 -155 -109 -241 -70 -299 77 -615 348
-749 120 -59 176 -73 314 -74 253 -2 492 152 604 393 100 214 71 493 -73 680
l-35 46 138 4 c138 3 138 3 177 34 49 40 73 82 78 136 4 50 -20 113 -56 148
-60 56 64 53 -1904 54 -1201 1 -1809 4 -1808 11 2 17 183 519 192 535 7 13
211 15 1722 15 1703 1 1714 1 1759 21 71 32 103 78 145 203 20 61 36 112 35
113 -1 2 4 17 10 33 14 36 130 393 135 415 2 8 15 49 28 90 14 41 55 170 92
285 37 116 77 242 90 280 13 39 55 171 95 295 39 124 108 338 152 475 44 138
116 363 160 500 43 138 88 275 98 305 10 30 22 70 25 88 19 93 -32 195 -119
237 -59 29 -26 26 -606 50 -69 3 -165 7 -215 10 -124 6 -394 18 -700 30 -82 3
-193 8 -245 10 -197 9 -358 16 -445 20 -49 2 -153 7 -230 10 -77 3 -178 8
-225 10 -47 2 -156 7 -243 10 -87 3 -188 7 -225 10 -37 2 -143 6 -237 10 -93
3 -206 8 -250 10 -44 3 -145 7 -225 11 -80 3 -179 7 -220 9 -422 18 -415 18
-462 -3 -141 -62 -183 -240 -82 -352 61 -68 90 -76 299 -85 77 -3 187 -8 245
-10 58 -3 164 -7 235 -10 72 -2 180 -7 240 -10 154 -7 319 -14 465 -20 69 -3
170 -7 225 -10 148 -7 336 -15 455 -20 137 -5 340 -14 465 -20 55 -3 163 -7
240 -10 77 -3 183 -8 235 -10 52 -3 156 -7 230 -10 74 -3 176 -7 225 -10 50
-2 164 -7 255 -11 91 -4 188 -8 215 -9 28 -2 78 -4 112 -4 l61 -1 -9 -37 c-11
-42 -35 -117 -162 -513 -47 -146 -122 -380 -167 -520 -44 -140 -87 -273 -95
-295 -7 -22 -39 -121 -70 -220 -32 -99 -70 -218 -85 -265 -34 -103 -162 -503
-185 -581 l-17 -55 -1772 0 -1772 0 -23 126 c-12 69 -29 157 -37 197 -8 39
-17 88 -20 109 -3 20 -7 44 -9 53 -1 9 -10 54 -19 101 -8 47 -18 99 -21 115
-3 17 -10 53 -15 80 -4 28 -20 111 -34 185 -14 74 -27 146 -30 160 -2 14 -9
52 -15 85 -6 33 -12 71 -15 85 -6 34 -25 139 -31 170 -3 14 -9 50 -15 80 -6
30 -12 64 -14 75 -13 70 -46 244 -50 265 -2 14 -24 138 -49 275 -26 138 -48
261 -51 275 -2 14 -7 36 -10 50 -3 14 -8 39 -10 55 -3 17 -9 55 -15 85 -5 30
-12 71 -16 90 -3 19 -23 130 -45 245 -22 116 -41 222 -44 238 -9 53 -26 142
-31 167 -3 14 -8 45 -11 70 -9 68 -43 137 -85 173 -24 21 -93 54 -186 91 -81
32 -157 62 -168 67 -20 9 -658 259 -730 286 -71 27 -119 31 -173 14z m2618
-5630 c210 -98 235 -389 45 -515 -63 -42 -107 -54 -183 -52 -199 8 -332 212
-261 401 27 73 100 146 170 173 69 25 167 23 229 -7z m2471 0 c98 -42 169
-150 173 -263 5 -118 -58 -221 -170 -278 -66 -34 -176 -34 -248 -2 -66 30
-130 99 -156 170 -61 161 38 349 206 391 53 14 142 6 195 -18z"/>
</g>
</svg>
